<?xml version="1.0" encoding="UTF-8" standalone="no"?>
<!-- Created with Inkscape (http://www.inkscape.org/) -->

<svg
   xmlns:dc="http://purl.org/dc/elements/1.1/"
   xmlns:cc="http://creativecommons.org/ns#"
   xmlns:rdf="http://www.w3.org/1999/02/22-rdf-syntax-ns#"
   xmlns:svg="http://www.w3.org/2000/svg"
   xmlns="http://www.w3.org/2000/svg"
   xmlns:xlink="http://www.w3.org/1999/xlink"
   xmlns:sodipodi="http://sodipodi.sourceforge.net/DTD/sodipodi-0.dtd"
   xmlns:inkscape="http://www.inkscape.org/namespaces/inkscape"
   width="297mm"
   height="210mm"
   viewBox="0 0 1052.3622 744.09448"
   id="svg2"
   version="1.1"
   inkscape:version="0.91 r13725"
   sodipodi:docname="schematic.svg">
  <defs
     id="defs4">
    <marker
       inkscape:stockid="Arrow2Lstart"
       orient="auto"
       refY="0.0"
       refX="0.0"
       id="Arrow2Lstart"
       style="overflow:visible"
       inkscape:isstock="true">
      <path
         id="path4308"
         style="fill-rule:evenodd;stroke-width:0.625;stroke-linejoin:round;stroke:#000000;stroke-opacity:1;fill:#000000;fill-opacity:1"
         d="M 8.7185878,4.0337352 L -2.2072895,0.016013256 L 8.7185884,-4.0017078 C 6.9730900,-1.6296469 6.9831476,1.6157441 8.7185878,4.0337352 z "
         transform="scale(1.1) translate(1,0)" />
    </marker>
    <marker
       inkscape:stockid="Arrow1Lstart"
       orient="auto"
       refY="0.0"
       refX="0.0"
       id="Arrow1Lstart"
       style="overflow:visible"
       inkscape:isstock="true">
      <path
         id="path4290"
         d="M 0.0,0.0 L 5.0,-5.0 L -12.5,0.0 L 5.0,5.0 L 0.0,0.0 z "
         style="fill-rule:evenodd;stroke:#000000;stroke-width:1pt;stroke-opacity:1;fill:#000000;fill-opacity:1"
         transform="scale(0.8) translate(12.5,0)" />
    </marker>
    <pattern
       inkscape:collect="always"
       xlink:href="#Strips1_1"
       id="pattern5744"
       patternTransform="matrix(0,-2.4999988,10,0,600,492.3622)" />
    <pattern
       inkscape:collect="always"
       xlink:href="#Strips1_1"
       id="pattern5623"
       patternTransform="matrix(9.6592583,2.5881905,-2.5881905,9.6592583,0,0)" />
    <pattern
       inkscape:collect="always"
       xlink:href="#Strips1_1"
       id="pattern5621"
       patternTransform="matrix(9.6592582,2.5881904,-2.5881904,9.6592582,0,0)" />
    <pattern
       inkscape:isstock="true"
       inkscape:stockid="Stripes 1:1"
       id="Strips1_1"
       patternTransform="translate(0,0) scale(10,10)"
       height="1"
       width="2"
       patternUnits="userSpaceOnUse"
       inkscape:collect="always">
      <rect
         id="rect4884"
         height="2"
         width="1"
         y="-0.5"
         x="0"
         style="fill:black;stroke:none" />
    </pattern>
  </defs>
  <sodipodi:namedview
     id="base"
     pagecolor="#ffffff"
     bordercolor="#666666"
     borderopacity="1.0"
     inkscape:pageopacity="0.0"
     inkscape:pageshadow="2"
     inkscape:zoom="1.979899"
     inkscape:cx="865.16179"
     inkscape:cy="492.45563"
     inkscape:document-units="px"
     inkscape:current-layer="layer1"
     showgrid="true"
     inkscape:window-width="1855"
     inkscape:window-height="1176"
     inkscape:window-x="65"
     inkscape:window-y="24"
     inkscape:window-maximized="1"
     inkscape:snap-bbox="false"
     inkscape:object-nodes="true"
     inkscape:snap-object-midpoints="true"
     inkscape:snap-grids="true">
    <inkscape:grid
       type="xygrid"
       id="grid3336" />
  </sodipodi:namedview>
  <metadata
     id="metadata7">
    <rdf:RDF>
      <cc:Work
         rdf:about="">
        <dc:format>image/svg+xml</dc:format>
        <dc:type
           rdf:resource="http://purl.org/dc/dcmitype/StillImage" />
        <dc:title />
      </cc:Work>
    </rdf:RDF>
  </metadata>
  <g
     inkscape:label="Layer 1"
     inkscape:groupmode="layer"
     id="layer1"
     transform="translate(0,-308.26772)">
    <path
       style="fill:url(#pattern5623);fill-opacity:1;fill-rule:evenodd;stroke:none;stroke-width:1px;stroke-linecap:butt;stroke-linejoin:miter;stroke-opacity:1"
       d="m 115,362.36221 460,0 0,19.99999 -460,0 z"
       id="rect4161"
       inkscape:connector-curvature="0" />
    <path
       style="fill:url(#pattern5621);fill-opacity:1;fill-rule:evenodd;stroke:none;stroke-width:1px;stroke-linecap:butt;stroke-linejoin:miter;stroke-opacity:1"
       d="m 115,652.36218 460,0 0,19.99999 -460,0 z"
       id="rect4163"
       inkscape:connector-curvature="0" />
    <rect
       style="stroke:none"
       id="rect5625"
       width="15"
       height="350"
       x="100"
       y="342.36221" />
    <rect
       y="342.36221"
       x="575"
       height="350"
       width="15"
       id="rect5627"
       style="stroke:none" />
    <rect
       style="stroke:none;fill:#ff0000"
       id="rect5629"
       width="15"
       height="350"
       x="230"
       y="342.36221" />
    <rect
       style="fill:#0000ff;stroke:none"
       id="rect5631"
       width="495"
       height="5"
       x="115"
       y="452.36221" />
    <rect
       style="fill:#00ffff;stroke:none"
       id="rect5635"
       width="5"
       height="35"
       x="245"
       y="437.36221" />
    <rect
       style="fill:#00ff00;stroke:none"
       id="rect5633"
       width="495"
       height="5"
       x="115"
       y="437.36221" />
    <rect
       style="fill:#008000;stroke:none"
       id="rect5637"
       width="5"
       height="20"
       x="250"
       y="437.36221" />
    <text
       xml:space="preserve"
       style="font-style:normal;font-weight:normal;font-size:40px;line-height:125%;font-family:sans-serif;letter-spacing:0px;word-spacing:0px;fill:#000000;fill-opacity:1;stroke:none;stroke-width:1px;stroke-linecap:butt;stroke-linejoin:miter;stroke-opacity:1"
       x="409.59644"
       y="436.9079"
       id="text5639"
       sodipodi:linespacing="125%"><tspan
         sodipodi:role="line"
         id="tspan5641"
         x="409.59644"
         y="436.9079"
         style="font-size:10px">READ</tspan></text>
    <text
       sodipodi:linespacing="125%"
       id="text5643"
       y="464.6871"
       x="410.24585"
       style="font-style:normal;font-weight:normal;font-size:40px;line-height:125%;font-family:sans-serif;letter-spacing:0px;word-spacing:0px;fill:#000000;fill-opacity:1;stroke:none;stroke-width:1px;stroke-linecap:butt;stroke-linejoin:miter;stroke-opacity:1"
       xml:space="preserve"><tspan
         style="font-size:10px"
         y="464.6871"
         x="410.24585"
         id="tspan5645"
         sodipodi:role="line">WRITE</tspan></text>
    <circle
       style="fill:#008000;stroke:none"
       id="path5647"
       cx="610"
       cy="427.36221"
       r="5" />
    <rect
       style="fill:#008000;stroke:none"
       id="rect5649"
       width="5"
       height="15"
       x="605"
       y="427.36221" />
    <path
       style="fill:#008000;stroke:none"
       d="m 622.85547,422.56728 a 2.5,2.5 0 0 0 -2.5,2.5 2.5,2.5 0 0 0 0.0547,0.5 l -0.0547,0 -3.64648,10.20898 a 7.5,7.5 0 0 0 -1.32422,3.71094 l -0.0293,0.0801 0,0.5 0,0.5 0.0234,0.0664 a 7.5,7.5 0 0 0 1.32422,3.70898 l 3.65234,10.22461 0.0508,0 a 2.5,2.5 0 0 0 -0.0508,0.5 2.5,2.5 0 0 0 2.5,2.5 2.5,2.5 0 0 0 2.5,-2.5 2.5,2.5 0 0 0 -0.0547,-0.5 l 0.0547,0 L 629,444.3622 a 7.5,7.5 0 0 0 1.32617,-3.71484 l 0.0293,-0.0801 0,-0.5 0,-0.5 -0.0234,-0.0684 a 7.5,7.5 0 0 0 -1.32422,-3.70312 l -3.65234,-10.22852 -0.0508,0 a 2.5,2.5 0 0 0 0.0508,-0.5 2.5,2.5 0 0 0 -2.5,-2.5 z"
       id="path5655"
       inkscape:connector-curvature="0" />
    <circle
       style="fill:#ececec;fill-opacity:1;stroke:none"
       id="path5672"
       cx="622.5"
       cy="439.86221"
       r="3.5" />
    <rect
       style="fill:#666666;fill-opacity:1;stroke:none"
       id="rect5674"
       width="28"
       height="7"
       x="622"
       y="436.36221" />
    <circle
       style="fill:#000000;fill-opacity:1;stroke:none"
       id="path5668"
       cx="622.5"
       cy="439.86221"
       r="2.5" />
    <rect
       style="fill:#0000ff;fill-opacity:1;fill-rule:evenodd;stroke:none;stroke-width:1px;stroke-linecap:butt;stroke-linejoin:miter;stroke-opacity:1"
       id="rect3397"
       width="110"
       height="20.000006"
       x="600"
       y="362.36221" />
    <rect
       style="fill:#666666;fill-opacity:1;stroke:none"
       id="rect5676"
       width="10"
       height="349.99997"
       x="640"
       y="342.36221" />
    <path
       style="fill:none;fill-rule:evenodd;stroke:#000000;stroke-width:4;stroke-linecap:butt;stroke-linejoin:miter;stroke-opacity:1;stroke-miterlimit:4;stroke-dasharray:none"
       d="m 610,482.3622 c 0,50 10,30 10,240"
       id="path5750"
       inkscape:connector-curvature="0"
       sodipodi:nodetypes="cc" />
    <rect
       y="522.36218"
       x="115"
       height="5"
       width="495"
       id="rect5678"
       style="fill:#0000ff;stroke:none" />
    <rect
       y="507.36227"
       x="245"
       height="35"
       width="5"
       id="rect5680"
       style="fill:#00ffff;stroke:none" />
    <rect
       y="507.36227"
       x="115"
       height="5"
       width="495"
       id="rect5682"
       style="fill:#00ff00;stroke:none" />
    <rect
       y="507.36227"
       x="250"
       height="20"
       width="5"
       id="rect5684"
       style="fill:#008000;stroke:none" />
    <text
       sodipodi:linespacing="125%"
       id="text5686"
       y="506.90796"
       x="409.59644"
       style="font-style:normal;font-weight:normal;font-size:40px;line-height:125%;font-family:sans-serif;letter-spacing:0px;word-spacing:0px;fill:#000000;fill-opacity:1;stroke:none;stroke-width:1px;stroke-linecap:butt;stroke-linejoin:miter;stroke-opacity:1"
       xml:space="preserve"><tspan
         style="font-size:10px"
         y="506.90796"
         x="409.59644"
         id="tspan5688"
         sodipodi:role="line">READ</tspan></text>
    <text
       xml:space="preserve"
       style="font-style:normal;font-weight:normal;font-size:40px;line-height:125%;font-family:sans-serif;letter-spacing:0px;word-spacing:0px;fill:#000000;fill-opacity:1;stroke:none;stroke-width:1px;stroke-linecap:butt;stroke-linejoin:miter;stroke-opacity:1"
       x="410.24585"
       y="534.68707"
       id="text5690"
       sodipodi:linespacing="125%"><tspan
         sodipodi:role="line"
         id="tspan5692"
         x="410.24585"
         y="534.68707"
         style="font-size:10px">WRITE</tspan></text>
    <circle
       r="5"
       cy="497.36227"
       cx="610"
       id="circle5694"
       style="fill:#008000;stroke:none" />
    <rect
       y="497.36227"
       x="605"
       height="15"
       width="5"
       id="rect5696"
       style="fill:#008000;stroke:none" />
    <path
       inkscape:connector-curvature="0"
       id="path5698"
       d="m 622.85547,492.56731 a 2.5,2.5 0 0 0 -2.5,2.5 2.5,2.5 0 0 0 0.0547,0.5 l -0.0547,0 -3.64648,10.20898 a 7.5,7.5 0 0 0 -1.32422,3.71094 l -0.0293,0.0801 0,0.5 0,0.5 0.0234,0.0664 a 7.5,7.5 0 0 0 1.32422,3.70898 l 3.65234,10.22461 0.0508,0 a 2.5,2.5 0 0 0 -0.0508,0.5 2.5,2.5 0 0 0 2.5,2.5 2.5,2.5 0 0 0 2.5,-2.5 2.5,2.5 0 0 0 -0.0547,-0.5 l 0.0547,0 L 629,514.36223 a 7.5,7.5 0 0 0 1.32617,-3.71484 l 0.0293,-0.0801 0,-0.5 0,-0.5 -0.0234,-0.0684 a 7.5,7.5 0 0 0 -1.32422,-3.70312 l -3.65234,-10.22852 -0.0508,0 a 2.5,2.5 0 0 0 0.0508,-0.5 2.5,2.5 0 0 0 -2.5,-2.5 z"
       style="fill:#008000;stroke:none" />
    <circle
       r="3.5"
       cy="509.86227"
       cx="622.5"
       id="circle5700"
       style="fill:#ececec;fill-opacity:1;stroke:none" />
    <rect
       y="506.36227"
       x="622"
       height="7"
       width="28"
       id="rect5702"
       style="fill:#666666;fill-opacity:1;stroke:none" />
    <circle
       r="2.5"
       cy="509.86227"
       cx="622.5"
       id="circle5704"
       style="fill:#000000;fill-opacity:1;stroke:none" />
    <path
       style="fill:none;fill-rule:evenodd;stroke:#000000;stroke-width:1px;stroke-linecap:butt;stroke-linejoin:miter;stroke-opacity:1"
       d="m 625.30471,425.56722 44.42643,0"
       id="path5712"
       inkscape:connector-curvature="0" />
    <path
       style="fill:none;fill-rule:evenodd;stroke:#000000;stroke-width:1px;stroke-linecap:butt;stroke-linejoin:miter;stroke-opacity:1"
       d="m 625.35543,454.56729 44.37571,0"
       id="path5714"
       inkscape:connector-curvature="0" />
    <path
       inkscape:connector-curvature="0"
       id="path5716"
       d="m 625.35551,495.56725 44.42643,0"
       style="fill:none;fill-rule:evenodd;stroke:#000000;stroke-width:1px;stroke-linecap:butt;stroke-linejoin:miter;stroke-opacity:1" />
    <path
       inkscape:connector-curvature="0"
       id="path5718"
       d="m 625.40623,524.56732 44.37571,0"
       style="fill:none;fill-rule:evenodd;stroke:#000000;stroke-width:1px;stroke-linecap:butt;stroke-linejoin:miter;stroke-opacity:1" />
    <rect
       style="fill:#000000;fill-opacity:1;stroke:none"
       id="rect5722"
       width="20"
       height="5"
       x="650"
       y="422.36221" />
    <rect
       y="452.36221"
       x="650"
       height="5"
       width="20"
       id="rect5724"
       style="fill:#000000;fill-opacity:1;stroke:none" />
    <rect
       style="fill:#000000;fill-opacity:1;stroke:none"
       id="rect5726"
       width="20"
       height="5"
       x="650"
       y="492.36221" />
    <rect
       y="522.36218"
       x="650"
       height="5"
       width="20"
       id="rect5728"
       style="fill:#000000;fill-opacity:1;stroke:none" />
    <rect
       style="fill:#808000;fill-opacity:1;stroke:none"
       id="rect5730"
       width="5"
       height="40"
       x="590"
       y="352.36221" />
    <rect
       y="352.36221"
       x="600"
       height="40"
       width="5"
       id="rect5732"
       style="fill:#808000;fill-opacity:1;stroke:none" />
    <rect
       style="fill:url(#pattern5744);fill-opacity:1;stroke:none"
       id="rect5734"
       width="5"
       height="320"
       x="595"
       y="357.36221" />
    <rect
       y="642.36218"
       x="590"
       height="40"
       width="5"
       id="rect5736"
       style="fill:#808000;fill-opacity:1;stroke:none" />
    <rect
       style="fill:#808000;fill-opacity:1;stroke:none"
       id="rect5738"
       width="5"
       height="40"
       x="600"
       y="642.36218" />
    <rect
       style="fill:#000000;fill-opacity:1;stroke:none"
       id="rect5746"
       width="30"
       height="10"
       x="590"
       y="472.36221" />
    <path
       style="fill:none;fill-rule:evenodd;stroke:#000000;stroke-width:1px;stroke-linecap:butt;stroke-linejoin:miter;stroke-opacity:1"
       d="m 610,452.3622 0,20"
       id="path5748"
       inkscape:connector-curvature="0" />
    <circle
       style="fill:none;fill-opacity:1;stroke:#000000;stroke-opacity:1"
       id="path4207"
       cx="840"
       cy="407.36221"
       r="25" />
    <circle
       r="25"
       cy="407.36221"
       cx="940"
       id="circle4215"
       style="fill:none;fill-opacity:1;stroke:#000000;stroke-opacity:1" />
    <circle
       style="fill:none;fill-opacity:1;stroke:#000000;stroke-opacity:1"
       id="circle4217"
       cx="880"
       cy="377.36221"
       r="25" />
    <circle
       r="25"
       cy="427.36221"
       cx="895"
       id="circle4219"
       style="fill:none;fill-opacity:1;stroke:#000000;stroke-opacity:1" />
    <path
       style="fill:none;fill-opacity:1;stroke:#000000;stroke-opacity:1"
       d="m 840,459.131 c 28.59163,2.7e-4 51.7698,-23.1779 51.76953,-51.76953 C 891.76872,378.7706 868.59087,355.59362 840,355.59389"
       id="circle4221"
       inkscape:connector-curvature="0"
       sodipodi:nodetypes="ccc" />
    <text
       xml:space="preserve"
       style="font-style:normal;font-weight:normal;font-size:40px;line-height:125%;font-family:sans-serif;letter-spacing:0px;word-spacing:0px;fill:#000000;fill-opacity:1;stroke:none;stroke-width:1px;stroke-linecap:butt;stroke-linejoin:miter;stroke-opacity:1"
       x="838.48474"
       y="347.00943"
       id="text4226"
       sodipodi:linespacing="125%"><tspan
         sodipodi:role="line"
         id="tspan4228"
         x="838.48474"
         y="347.00943"
         style="font-size:10px">Reverse mecanism</tspan></text>
    <rect
       y="402.36221"
       x="680"
       height="19.999994"
       width="45"
       id="rect4230"
       style="fill:#0000ff;fill-opacity:1;fill-rule:evenodd;stroke:none;stroke-width:1px;stroke-linecap:butt;stroke-linejoin:miter;stroke-opacity:1" />
    <rect
       style="fill:none;fill-opacity:1;stroke:#000000;stroke-opacity:1"
       id="rect4232"
       width="10"
       height="30"
       x="690"
       y="357.36221" />
    <rect
       style="fill:none;fill-opacity:1;stroke:#000000;stroke-opacity:1"
       id="rect4234"
       width="10"
       height="30"
       x="690"
       y="397.36221" />
    <path
       style="fill:none;fill-rule:evenodd;stroke:#000000;stroke-width:1px;stroke-linecap:butt;stroke-linejoin:miter;stroke-opacity:1"
       d="m 725,392.36221 10,10 0,20 -10,10 z"
       id="path4236"
       inkscape:connector-curvature="0" />
    <path
       style="fill:none;fill-rule:evenodd;stroke:#000000;stroke-width:1px;stroke-linecap:butt;stroke-linejoin:miter;stroke-opacity:1"
       d="m 725,432.36221 10,-10 20,0 10,10 -40,0"
       id="path4238"
       inkscape:connector-curvature="0" />
    <path
       style="fill:none;fill-rule:evenodd;stroke:#000000;stroke-width:1px;stroke-linecap:butt;stroke-linejoin:miter;stroke-opacity:1"
       d="m 755,422.36221 0,-20 10,-10 0,40 z"
       id="path4240"
       inkscape:connector-curvature="0" />
    <rect
       style="fill:#0000ff;fill-opacity:1;fill-rule:evenodd;stroke:none;stroke-width:1px;stroke-linecap:butt;stroke-linejoin:miter;stroke-opacity:1"
       id="rect4242"
       width="45"
       height="19.999994"
       x="765"
       y="402.36221" />
    <rect
       y="432.36221"
       x="735"
       height="9.9999952"
       width="20"
       id="rect4244"
       style="fill:#0000ff;fill-opacity:1;fill-rule:evenodd;stroke:none;stroke-width:1px;stroke-linecap:butt;stroke-linejoin:miter;stroke-opacity:1" />
    <path
       inkscape:connector-curvature="0"
       id="path4246"
       d="m 777.50002,447.36221 a 2.5,2.5 0 0 0 -2.5,-2.5 2.5,2.5 0 0 0 -0.5,0.0547 l 0,-0.0547 -10.20898,-3.64648 a 7.5,7.5 0 0 0 -3.71094,-1.32422 l -0.0801,-0.0293 -0.5,0 -0.5,0 -0.0664,0.0234 a 7.5,7.5 0 0 0 -3.70898,1.32422 l -10.22461,3.65234 0,0.0508 a 2.5,2.5 0 0 0 -0.5,-0.0508 2.5,2.5 0 0 0 -2.5,2.5 2.5,2.5 0 0 0 2.5,2.5 2.5,2.5 0 0 0 0.5,-0.0547 l 0,0.0547 10.20509,3.64457 a 7.5,7.5 0 0 0 3.71484,1.32617 l 0.0801,0.0293 0.5,0 0.5,0 0.0684,-0.0234 a 7.5,7.5 0 0 0 3.70312,-1.32422 l 10.22852,-3.65234 0,-0.0508 a 2.5,2.5 0 0 0 0.5,0.0508 2.5,2.5 0 0 0 2.5,-2.5 z"
       style="fill:#008000;stroke:none" />
    <circle
       r="3.5"
       cy="-760.20508"
       cx="447.00674"
       id="circle4248"
       style="fill:#ececec;fill-opacity:1;stroke:none"
       transform="matrix(0,1,-1,0,0,0)" />
    <rect
       y="-763.70508"
       x="446.50674"
       height="7"
       width="28"
       id="rect4250"
       style="fill:#666666;fill-opacity:1;stroke:none"
       transform="matrix(0,1,-1,0,0,0)" />
    <circle
       r="2.5"
       cy="-760.20508"
       cx="447.00674"
       id="circle4252"
       style="fill:#000000;fill-opacity:1;stroke:none"
       transform="matrix(0,1,-1,0,0,0)" />
    <path
       inkscape:connector-curvature="0"
       id="path4254"
       d="m 774.50008,449.81145 0,44.42643"
       style="fill:none;fill-rule:evenodd;stroke:#000000;stroke-width:1px;stroke-linecap:butt;stroke-linejoin:miter;stroke-opacity:1" />
    <rect
       y="-777.70508"
       x="474.50674"
       height="5"
       width="20"
       id="rect4258"
       style="fill:#000000;fill-opacity:1;stroke:none"
       transform="matrix(0,1,-1,0,0,0)" />
    <g
       id="g4280"
       transform="translate(-40.205078,-22.144536)">
      <path
         style="fill:none;fill-rule:evenodd;stroke:#000000;stroke-width:1px;stroke-linecap:butt;stroke-linejoin:miter;stroke-opacity:1"
         d="m 745.50001,449.86217 0,44.37571"
         id="path4256"
         inkscape:connector-curvature="0" />
      <rect
         transform="matrix(0,1,-1,0,0,0)"
         y="-747.70508"
         x="474.50674"
         height="5"
         width="20"
         id="rect4260"
         style="fill:#000000;fill-opacity:1;stroke:none" />
    </g>
    <path
       style="fill:none;fill-rule:evenodd;stroke:#000000;stroke-width:1px;stroke-linecap:butt;stroke-linejoin:miter;stroke-opacity:1;marker-start:url(#Arrow2Lstart)"
       d="m 800,399.03391 c 6.18361,10 5.93719,20 0,30"
       id="path4284"
       inkscape:connector-curvature="0"
       sodipodi:nodetypes="cc" />
    <circle
       style="fill:none;fill-opacity:1;stroke:#000000;stroke-opacity:1"
       id="path4646"
       cx="840"
       cy="407.36221"
       r="5" />
    <circle
       style="fill:none;fill-opacity:1;stroke:#000000;stroke-opacity:1"
       id="path4648"
       cx="880"
       cy="377.36221"
       r="5" />
    <circle
       style="fill:none;fill-opacity:1;stroke:#000000;stroke-opacity:1"
       id="path4650"
       cx="895"
       cy="427.36221"
       r="5" />
    <g
       transform="translate(-0.20507813,-2.1445362)"
       id="g4652">
      <path
         inkscape:connector-curvature="0"
         id="path4654"
         d="m 745.50001,449.86217 0,44.37571"
         style="fill:none;fill-rule:evenodd;stroke:#000000;stroke-width:1px;stroke-linecap:butt;stroke-linejoin:miter;stroke-opacity:1" />
      <rect
         style="fill:#000000;fill-opacity:1;stroke:none"
         id="rect4656"
         width="20"
         height="5"
         x="474.50674"
         y="-747.70508"
         transform="matrix(0,1,-1,0,0,0)" />
    </g>
    <text
       xml:space="preserve"
       style="font-style:normal;font-weight:normal;font-size:40px;line-height:125%;font-family:sans-serif;letter-spacing:0px;word-spacing:0px;fill:#000000;fill-opacity:1;stroke:none;stroke-width:1px;stroke-linecap:butt;stroke-linejoin:miter;stroke-opacity:1"
       x="709.94922"
       y="475.34192"
       id="text4658"
       sodipodi:linespacing="125%"><tspan
         sodipodi:role="line"
         id="tspan4660"
         x="709.94922"
         y="475.34192"
         style="font-size:10px">x2</tspan></text>
    <text
       sodipodi:linespacing="125%"
       id="text4662"
       y="722.32422"
       x="624.08624"
       style="font-style:normal;font-weight:normal;font-size:40px;line-height:125%;font-family:sans-serif;letter-spacing:0px;word-spacing:0px;fill:#000000;fill-opacity:1;stroke:none;stroke-width:1px;stroke-linecap:butt;stroke-linejoin:miter;stroke-opacity:1"
       xml:space="preserve"><tspan
         style="font-size:10px"
         y="722.32422"
         x="624.08624"
         id="tspan4664"
         sodipodi:role="line">x2</tspan></text>
    <text
       xml:space="preserve"
       style="font-style:normal;font-weight:normal;font-size:40px;line-height:125%;font-family:sans-serif;letter-spacing:0px;word-spacing:0px;fill:#000000;fill-opacity:1;stroke:none;stroke-width:1px;stroke-linecap:butt;stroke-linejoin:miter;stroke-opacity:1"
       x="800"
       y="517.36218"
       id="text4666"
       sodipodi:linespacing="125%"><tspan
         sodipodi:role="line"
         id="tspan4668"
         x="800"
         y="517.36218"
         style="font-size:10px">Bowden cable drives:</tspan><tspan
         sodipodi:role="line"
         x="800"
         y="529.86218"
         style="font-size:10px"
         id="tspan4670">Direction x2</tspan><tspan
         sodipodi:role="line"
         x="800"
         y="542.36218"
         style="font-size:10px"
         id="tspan4672">Write x2 per bit</tspan><tspan
         sodipodi:role="line"
         x="800"
         y="554.86218"
         style="font-size:10px"
         id="tspan4674">Read x2 per bit</tspan><tspan
         sodipodi:role="line"
         x="800"
         y="567.36218"
         style="font-size:10px"
         id="tspan4676">Read enable x2</tspan><tspan
         sodipodi:role="line"
         x="800"
         y="579.86218"
         style="font-size:10px"
         id="tspan4680">Seek x2</tspan><tspan
         sodipodi:role="line"
         x="800"
         y="592.36218"
         style="font-size:10px"
         id="tspan4678" /></text>
  </g>
</svg>
